<mxfile host="app.diagrams.net" modified="2023-04-14T14:36:56.568Z" agent="Mozilla/5.0 (Windows NT 10.0; Win64; x64) AppleWebKit/537.36 (KHTML, like Gecko) Chrome/112.0.0.0 Safari/537.36 Edg/112.0.1722.39" etag="3-mxXGvfk3qLny5jdmJ1" version="21.1.8" type="device">
  <diagram name="Page-1" id="EYxxz-6mwcbR-wl1NnQr">
    <mxGraphModel dx="756" dy="459" grid="1" gridSize="10" guides="1" tooltips="1" connect="1" arrows="1" fold="1" page="1" pageScale="1" pageWidth="850" pageHeight="1100" math="0" shadow="0">
      <root>
        <mxCell id="0" />
        <mxCell id="1" parent="0" />
        <mxCell id="f1IUb5mPvyYK8uq6sLnq-1" value="Actor" style="shape=umlActor;verticalLabelPosition=bottom;verticalAlign=top;html=1;outlineConnect=0;" parent="1" vertex="1">
          <mxGeometry x="31" y="150" width="30" height="60" as="geometry" />
        </mxCell>
        <mxCell id="f1IUb5mPvyYK8uq6sLnq-4" value="" style="edgeStyle=orthogonalEdgeStyle;rounded=0;orthogonalLoop=1;jettySize=auto;html=1;" parent="1" source="f1IUb5mPvyYK8uq6sLnq-2" target="f1IUb5mPvyYK8uq6sLnq-3" edge="1">
          <mxGeometry relative="1" as="geometry" />
        </mxCell>
        <mxCell id="f1IUb5mPvyYK8uq6sLnq-29" style="edgeStyle=orthogonalEdgeStyle;rounded=0;orthogonalLoop=1;jettySize=auto;html=1;exitX=0.5;exitY=0;exitDx=0;exitDy=0;entryX=0;entryY=0.5;entryDx=0;entryDy=0;" parent="1" source="f1IUb5mPvyYK8uq6sLnq-2" target="f1IUb5mPvyYK8uq6sLnq-24" edge="1">
          <mxGeometry relative="1" as="geometry" />
        </mxCell>
        <mxCell id="f1IUb5mPvyYK8uq6sLnq-47" value="" style="edgeStyle=orthogonalEdgeStyle;rounded=0;orthogonalLoop=1;jettySize=auto;html=1;" parent="1" source="f1IUb5mPvyYK8uq6sLnq-2" target="f1IUb5mPvyYK8uq6sLnq-46" edge="1">
          <mxGeometry relative="1" as="geometry" />
        </mxCell>
        <mxCell id="vCtAhTr6p47FyQ7m1rUz-1" style="edgeStyle=orthogonalEdgeStyle;rounded=0;orthogonalLoop=1;jettySize=auto;html=1;entryX=0.5;entryY=0;entryDx=0;entryDy=0;" edge="1" parent="1" source="f1IUb5mPvyYK8uq6sLnq-2" target="f1IUb5mPvyYK8uq6sLnq-22">
          <mxGeometry relative="1" as="geometry">
            <Array as="points">
              <mxPoint x="126" y="30" />
              <mxPoint x="386" y="30" />
            </Array>
          </mxGeometry>
        </mxCell>
        <mxCell id="f1IUb5mPvyYK8uq6sLnq-2" value="Landing Page" style="rounded=1;whiteSpace=wrap;html=1;" parent="1" vertex="1">
          <mxGeometry x="66" y="150" width="120" height="60" as="geometry" />
        </mxCell>
        <mxCell id="f1IUb5mPvyYK8uq6sLnq-6" value="" style="edgeStyle=orthogonalEdgeStyle;rounded=0;orthogonalLoop=1;jettySize=auto;html=1;" parent="1" source="f1IUb5mPvyYK8uq6sLnq-3" target="f1IUb5mPvyYK8uq6sLnq-5" edge="1">
          <mxGeometry relative="1" as="geometry" />
        </mxCell>
        <mxCell id="f1IUb5mPvyYK8uq6sLnq-3" value="Clicked on Material" style="ellipse;whiteSpace=wrap;html=1;" parent="1" vertex="1">
          <mxGeometry x="231" y="150" width="80" height="60" as="geometry" />
        </mxCell>
        <mxCell id="f1IUb5mPvyYK8uq6sLnq-10" value="Yes" style="edgeStyle=orthogonalEdgeStyle;rounded=0;orthogonalLoop=1;jettySize=auto;html=1;" parent="1" source="f1IUb5mPvyYK8uq6sLnq-5" target="f1IUb5mPvyYK8uq6sLnq-9" edge="1">
          <mxGeometry relative="1" as="geometry" />
        </mxCell>
        <mxCell id="f1IUb5mPvyYK8uq6sLnq-23" value="No" style="edgeStyle=orthogonalEdgeStyle;rounded=0;orthogonalLoop=1;jettySize=auto;html=1;" parent="1" source="f1IUb5mPvyYK8uq6sLnq-5" target="f1IUb5mPvyYK8uq6sLnq-22" edge="1">
          <mxGeometry relative="1" as="geometry" />
        </mxCell>
        <mxCell id="f1IUb5mPvyYK8uq6sLnq-5" value="is logged in" style="rhombus;whiteSpace=wrap;html=1;" parent="1" vertex="1">
          <mxGeometry x="346" y="140" width="80" height="80" as="geometry" />
        </mxCell>
        <mxCell id="f1IUb5mPvyYK8uq6sLnq-9" value="Invoice Page" style="whiteSpace=wrap;html=1;" parent="1" vertex="1">
          <mxGeometry x="466" y="150" width="120" height="60" as="geometry" />
        </mxCell>
        <mxCell id="f1IUb5mPvyYK8uq6sLnq-22" value="Login Page" style="whiteSpace=wrap;html=1;" parent="1" vertex="1">
          <mxGeometry x="326" y="50" width="120" height="60" as="geometry" />
        </mxCell>
        <mxCell id="f1IUb5mPvyYK8uq6sLnq-24" value="Create Account &lt;br&gt;Page" style="whiteSpace=wrap;html=1;" parent="1" vertex="1">
          <mxGeometry x="176" y="50" width="120" height="60" as="geometry" />
        </mxCell>
        <mxCell id="f1IUb5mPvyYK8uq6sLnq-46" value="Materials" style="whiteSpace=wrap;html=1;rounded=1;" parent="1" vertex="1">
          <mxGeometry x="66" y="240" width="120" height="60" as="geometry" />
        </mxCell>
        <mxCell id="f1IUb5mPvyYK8uq6sLnq-59" value="" style="edgeStyle=orthogonalEdgeStyle;rounded=0;orthogonalLoop=1;jettySize=auto;html=1;" parent="1" source="f1IUb5mPvyYK8uq6sLnq-50" edge="1">
          <mxGeometry relative="1" as="geometry">
            <mxPoint x="231" y="378" as="targetPoint" />
          </mxGeometry>
        </mxCell>
        <mxCell id="f1IUb5mPvyYK8uq6sLnq-50" value="Invoice Page" style="rounded=0;whiteSpace=wrap;html=1;" parent="1" vertex="1">
          <mxGeometry x="70" y="348" width="120" height="60" as="geometry" />
        </mxCell>
        <mxCell id="f1IUb5mPvyYK8uq6sLnq-51" value="Yes" style="edgeStyle=orthogonalEdgeStyle;rounded=0;orthogonalLoop=1;jettySize=auto;html=1;" parent="1" target="f1IUb5mPvyYK8uq6sLnq-54" edge="1">
          <mxGeometry relative="1" as="geometry">
            <mxPoint x="271" y="418" as="sourcePoint" />
          </mxGeometry>
        </mxCell>
        <mxCell id="f1IUb5mPvyYK8uq6sLnq-52" value="No" style="edgeStyle=orthogonalEdgeStyle;rounded=0;orthogonalLoop=1;jettySize=auto;html=1;" parent="1" target="f1IUb5mPvyYK8uq6sLnq-56" edge="1">
          <mxGeometry relative="1" as="geometry">
            <mxPoint x="311" y="378" as="sourcePoint" />
          </mxGeometry>
        </mxCell>
        <mxCell id="f1IUb5mPvyYK8uq6sLnq-53" value="is Material&lt;br&gt;free" style="rhombus;whiteSpace=wrap;html=1;" parent="1" vertex="1">
          <mxGeometry x="231" y="339" width="80" height="80" as="geometry" />
        </mxCell>
        <mxCell id="f1IUb5mPvyYK8uq6sLnq-54" value="Download Page" style="whiteSpace=wrap;html=1;" parent="1" vertex="1">
          <mxGeometry x="211" y="468" width="120" height="60" as="geometry" />
        </mxCell>
        <mxCell id="f1IUb5mPvyYK8uq6sLnq-55" value="" style="edgeStyle=orthogonalEdgeStyle;rounded=0;orthogonalLoop=1;jettySize=auto;html=1;" parent="1" source="f1IUb5mPvyYK8uq6sLnq-56" target="f1IUb5mPvyYK8uq6sLnq-58" edge="1">
          <mxGeometry relative="1" as="geometry" />
        </mxCell>
        <mxCell id="f1IUb5mPvyYK8uq6sLnq-56" value="Payment Page" style="whiteSpace=wrap;html=1;" parent="1" vertex="1">
          <mxGeometry x="360" y="348" width="120" height="60" as="geometry" />
        </mxCell>
        <mxCell id="f1IUb5mPvyYK8uq6sLnq-57" value="Yes" style="edgeStyle=orthogonalEdgeStyle;rounded=0;orthogonalLoop=1;jettySize=auto;html=1;" parent="1" source="f1IUb5mPvyYK8uq6sLnq-58" target="f1IUb5mPvyYK8uq6sLnq-54" edge="1">
          <mxGeometry relative="1" as="geometry" />
        </mxCell>
        <mxCell id="f1IUb5mPvyYK8uq6sLnq-58" value="Is Payment Done" style="rhombus;whiteSpace=wrap;html=1;" parent="1" vertex="1">
          <mxGeometry x="380" y="458" width="80" height="80" as="geometry" />
        </mxCell>
        <mxCell id="f1IUb5mPvyYK8uq6sLnq-64" value="" style="edgeStyle=orthogonalEdgeStyle;rounded=0;orthogonalLoop=1;jettySize=auto;html=1;" parent="1" source="f1IUb5mPvyYK8uq6sLnq-60" target="f1IUb5mPvyYK8uq6sLnq-63" edge="1">
          <mxGeometry relative="1" as="geometry" />
        </mxCell>
        <mxCell id="f1IUb5mPvyYK8uq6sLnq-60" value="Materials" style="rounded=0;whiteSpace=wrap;html=1;" parent="1" vertex="1">
          <mxGeometry x="70" y="588" width="120" height="60" as="geometry" />
        </mxCell>
        <mxCell id="f1IUb5mPvyYK8uq6sLnq-61" value="Invoice Page" style="whiteSpace=wrap;html=1;rounded=0;" parent="1" vertex="1">
          <mxGeometry x="350" y="588" width="120" height="60" as="geometry" />
        </mxCell>
        <mxCell id="f1IUb5mPvyYK8uq6sLnq-65" value="Yes" style="edgeStyle=orthogonalEdgeStyle;rounded=0;orthogonalLoop=1;jettySize=auto;html=1;" parent="1" source="f1IUb5mPvyYK8uq6sLnq-63" target="f1IUb5mPvyYK8uq6sLnq-61" edge="1">
          <mxGeometry relative="1" as="geometry" />
        </mxCell>
        <mxCell id="f1IUb5mPvyYK8uq6sLnq-67" value="No" style="edgeStyle=orthogonalEdgeStyle;rounded=0;orthogonalLoop=1;jettySize=auto;html=1;" parent="1" source="f1IUb5mPvyYK8uq6sLnq-63" target="f1IUb5mPvyYK8uq6sLnq-66" edge="1">
          <mxGeometry relative="1" as="geometry" />
        </mxCell>
        <mxCell id="f1IUb5mPvyYK8uq6sLnq-63" value="Is Logged in" style="rhombus;whiteSpace=wrap;html=1;rounded=0;" parent="1" vertex="1">
          <mxGeometry x="231" y="578" width="80" height="80" as="geometry" />
        </mxCell>
        <mxCell id="f1IUb5mPvyYK8uq6sLnq-66" value="Login Page" style="whiteSpace=wrap;html=1;rounded=0;" parent="1" vertex="1">
          <mxGeometry x="211" y="700" width="120" height="60" as="geometry" />
        </mxCell>
        <mxCell id="f1IUb5mPvyYK8uq6sLnq-68" value="Invoice Page" style="whiteSpace=wrap;html=1;" parent="1" vertex="1">
          <mxGeometry x="210" y="920" width="120" height="60" as="geometry" />
        </mxCell>
        <mxCell id="f1IUb5mPvyYK8uq6sLnq-69" value="" style="edgeStyle=orthogonalEdgeStyle;rounded=0;orthogonalLoop=1;jettySize=auto;html=1;" parent="1" source="f1IUb5mPvyYK8uq6sLnq-70" target="f1IUb5mPvyYK8uq6sLnq-73" edge="1">
          <mxGeometry relative="1" as="geometry" />
        </mxCell>
        <mxCell id="f1IUb5mPvyYK8uq6sLnq-70" value="Login Page" style="whiteSpace=wrap;html=1;" parent="1" vertex="1">
          <mxGeometry x="70" y="820" width="120" height="60" as="geometry" />
        </mxCell>
        <mxCell id="f1IUb5mPvyYK8uq6sLnq-71" value="Yes" style="edgeStyle=orthogonalEdgeStyle;rounded=0;orthogonalLoop=1;jettySize=auto;html=1;" parent="1" source="f1IUb5mPvyYK8uq6sLnq-73" target="f1IUb5mPvyYK8uq6sLnq-68" edge="1">
          <mxGeometry relative="1" as="geometry" />
        </mxCell>
        <mxCell id="f1IUb5mPvyYK8uq6sLnq-72" value="No" style="edgeStyle=orthogonalEdgeStyle;rounded=0;orthogonalLoop=1;jettySize=auto;html=1;" parent="1" source="f1IUb5mPvyYK8uq6sLnq-73" target="f1IUb5mPvyYK8uq6sLnq-74" edge="1">
          <mxGeometry relative="1" as="geometry" />
        </mxCell>
        <mxCell id="f1IUb5mPvyYK8uq6sLnq-73" value="Is clicked on Material" style="rhombus;whiteSpace=wrap;html=1;" parent="1" vertex="1">
          <mxGeometry x="230" y="810" width="80" height="80" as="geometry" />
        </mxCell>
        <mxCell id="f1IUb5mPvyYK8uq6sLnq-74" value="Profile Page" style="whiteSpace=wrap;html=1;" parent="1" vertex="1">
          <mxGeometry x="370" y="820" width="120" height="60" as="geometry" />
        </mxCell>
      </root>
    </mxGraphModel>
  </diagram>
</mxfile>
